<svg width="206" height="204" viewBox="0 0 206 204" fill="white" xmlns="http://www.w3.org/2000/svg">
<path d="M110.824 27.041C111.029 27.041 111.132 27.1484 111.132 27.3633C111.132 28.2031 110.697 28.9258 109.828 29.5313C109.252 29.9414 108.705 30.1465 108.188 30.1465C107.68 30.1465 107.274 30.0879 106.972 29.9707C106.669 29.8535 106.396 29.668 106.151 29.4141C105.604 28.8281 105.331 28.0225 105.331 26.9971C105.331 26.792 105.37 26.4648 105.448 26.0156C104.657 27.2363 103.979 28.0957 103.412 28.5938C102.27 29.6289 101.151 30.1465 100.058 30.1465C98.3291 30.1465 97.1963 29.3652 96.6592 27.8027C96.4639 27.2266 96.3662 26.5039 96.3662 25.6348C96.3662 24.7656 96.498 23.8867 96.7617 22.998C97.0254 22.1094 97.3818 21.2646 97.8311 20.4639C98.29 19.6631 98.8174 18.9209 99.4131 18.2373C100.019 17.5439 100.653 16.9434 101.317 16.4355C102.743 15.3711 104.032 14.8389 105.185 14.8389C106.337 14.8389 107.26 15.3076 107.953 16.2451C109.652 10.4248 110.932 6.99219 111.791 5.94727C112.152 5.51758 112.533 5.30273 112.934 5.30273C113.598 5.30273 114.101 5.49316 114.442 5.87402C114.55 6.00098 114.604 6.12793 114.604 6.25488C114.604 6.38184 114.525 6.61621 114.369 6.95801C114.213 7.2998 113.983 7.85156 113.681 8.61328C112.812 10.9082 112.201 12.5879 111.85 13.6523C110.951 16.377 110.346 18.252 110.033 19.2773L109.228 21.9873C108.534 24.3994 108.188 25.9326 108.188 26.5869C108.188 27.2412 108.427 27.5684 108.905 27.5684C109.345 27.5684 109.696 27.5098 109.96 27.3926L110.517 27.1289C110.624 27.0703 110.727 27.041 110.824 27.041ZM100.761 27.9492C101.767 27.9492 102.919 26.9678 104.218 25.0049C105.575 22.9736 106.522 20.7617 107.06 18.3691C107.021 17.7051 106.742 17.2168 106.225 16.9043C106.049 16.7969 105.78 16.7432 105.419 16.7432C105.067 16.7432 104.652 16.875 104.174 17.1387C103.705 17.3926 103.246 17.7393 102.797 18.1787C102.357 18.6182 101.942 19.1357 101.552 19.7314C101.171 20.3174 100.839 20.9424 100.556 21.6064C99.9404 23.0518 99.6328 24.4727 99.6328 25.8691C99.6328 27.2559 100.009 27.9492 100.761 27.9492Z" fill="black"/>
<path d="M134.084 31.21C134.514 30.4759 135.016 29.824 135.59 29.2543C136.17 28.676 136.809 28.1623 137.508 27.713C138.211 27.2551 138.955 26.8678 139.739 26.5513C140.536 26.2306 141.333 26.0039 142.131 25.871C143.853 25.5948 145.345 25.7879 146.607 26.4505C148.086 27.2266 148.752 28.3536 148.605 29.8315C148.56 30.3373 148.383 30.8733 148.075 31.4395C147.772 31.997 147.389 32.4634 146.927 32.8387C146.47 33.2054 145.951 33.49 145.371 33.6926C144.803 33.8912 144.183 34.0122 143.509 34.0557C142.844 34.1038 142.157 34.0793 141.447 33.9824C139.992 33.7703 138.56 33.3053 137.15 32.5874C137.052 32.6903 136.935 32.8605 136.799 33.0981C136.663 33.3357 136.546 33.6217 136.448 33.9561C136.354 34.2818 136.32 34.6 136.344 34.9107C136.383 35.5929 136.696 36.0883 137.284 36.3969C138.288 36.9233 139.419 37.1421 140.679 37.0534C141.12 37.0315 141.499 36.9712 141.816 36.8726C142.145 36.7699 142.388 36.7594 142.544 36.8411C142.699 36.9228 142.784 37.0882 142.796 37.3375C142.822 37.5826 142.773 37.8219 142.651 38.0553C142.41 38.5136 142.072 38.8433 141.636 39.0444C139.974 39.5621 138.067 39.2559 135.914 38.1259C134.643 37.4588 133.822 36.5428 133.452 35.3779C133.041 34.0594 133.252 32.6701 134.084 31.21ZM145.417 28.0259C144.509 27.5493 143.309 27.7136 141.816 28.5185C140.545 29.2186 139.307 30.1902 138.103 31.4333C139.624 32.0442 141.177 32.1315 142.763 31.6953C144.23 31.2743 145.188 30.6357 145.638 29.7797C146.087 28.9236 146.013 28.339 145.417 28.0259ZM146.025 24.4406C145.619 24.3933 145.293 24.3105 145.047 24.1921C144.8 24.0736 144.665 23.9421 144.642 23.7975C144.578 23.4774 144.693 23.2787 144.987 23.2015L145.884 22.9439C147.803 22.3964 149.486 21.344 150.932 19.7868C151.2 19.4863 151.599 19.5138 152.129 19.8693C152.551 20.1791 152.801 20.6077 152.877 21.1552C153.046 22.3685 152.206 23.2846 150.36 23.9035C148.873 24.4028 147.428 24.5818 146.025 24.4406Z" fill="black"/>
<path d="M159.705 54.9034C159.887 54.5998 160.158 54.3231 160.52 54.0735C160.882 53.8239 161.318 53.6055 161.83 53.4185C162.35 53.2259 162.9 53.0599 163.48 52.9205C164.06 52.7811 164.662 52.6563 165.286 52.5459L167.109 52.1955C169.499 51.7208 170.786 51.2652 170.971 50.8288C171.057 50.627 171.083 50.3367 171.047 49.9581C171.042 49.8308 171.108 49.72 171.244 49.6257C171.389 49.5259 171.565 49.4878 171.771 49.5116C171.983 49.5434 172.203 49.6224 172.433 49.7488C172.884 50.0069 173.245 50.3329 173.517 50.7267C173.789 51.1206 173.95 51.4484 174 51.7104C174.064 51.9748 174.079 52.2197 174.045 52.4451C173.957 52.8854 173.724 53.2359 173.347 53.4966C172.969 53.7573 172.493 53.979 171.919 54.1616C171.345 54.3443 170.722 54.5074 170.05 54.651C169.378 54.7946 168.679 54.9264 167.955 55.0464L165.885 55.4253C164.37 55.7233 163.424 56.0027 163.046 56.2634C162.307 56.7738 162.117 57.2902 162.478 57.8126C163.404 59.1548 165.068 59.8634 167.47 59.9383C168.865 59.9835 170.208 59.7803 171.499 59.3288C172.107 59.1104 172.621 58.8569 173.039 58.5685C173.464 58.2745 173.807 58.0143 174.066 57.788C174.331 57.5697 174.549 57.3535 174.722 57.1394C175.036 56.7687 175.247 56.3617 175.356 55.9183C175.449 55.6053 175.747 55.5125 176.25 55.6398C176.791 55.7882 177.287 56.1879 177.736 56.8388C178.014 57.2407 178.069 57.7247 177.902 58.2908C177.718 58.9873 177.204 59.6267 176.36 60.2092C175.525 60.7861 174.615 61.2302 173.631 61.5413C172.655 61.8469 171.644 62.0407 170.597 62.1226C169.558 62.199 168.512 62.1617 167.458 62.0108C166.41 61.8679 165.414 61.6185 164.468 61.2627C162.43 60.5101 160.906 59.4024 159.896 57.9396C159.169 56.8868 159.105 55.8747 159.705 54.9034Z" fill="black"/>
<path d="M178.917 87.3685C179.765 87.3049 180.587 87.3478 181.382 87.4971C182.187 87.6453 182.973 87.8795 183.74 88.1995C184.516 88.5184 185.257 88.9104 185.963 89.3756C186.68 89.8493 187.319 90.3767 187.882 90.9577C189.087 92.218 189.776 93.5559 189.948 94.9713C190.149 96.629 189.6 97.8172 188.3 98.5357C187.858 98.7861 187.317 98.9453 186.676 99.0133C186.045 99.0801 185.443 99.0302 184.872 98.8634C184.311 98.6955 183.782 98.4302 183.285 98.0675C182.799 97.7133 182.347 97.2714 181.929 96.7418C181.512 96.2219 181.141 95.6422 180.818 95.0027C180.166 93.6849 179.735 92.242 179.525 90.6738C179.384 90.6515 179.178 90.652 178.905 90.6753C178.633 90.6986 178.331 90.7647 178 90.8738C177.678 90.9817 177.397 91.1339 177.155 91.3305C176.616 91.7501 176.386 92.2895 176.466 92.9488C176.603 94.0733 177.065 95.1288 177.854 96.1151C178.123 96.4661 178.388 96.7438 178.649 96.9482C178.92 97.1612 179.067 97.3549 179.088 97.5294C179.109 97.7039 179.021 97.8671 178.823 98.019C178.636 98.1795 178.411 98.2756 178.15 98.3074C177.636 98.3697 177.172 98.2785 176.759 98.0335C175.389 96.9604 174.558 95.2168 174.265 92.8029C174.091 91.3778 174.379 90.1821 175.127 89.2157C175.979 88.1286 177.242 87.5128 178.917 87.3685ZM187.975 94.8862C187.851 93.8683 187.034 92.9739 185.524 92.203C184.226 91.5541 182.723 91.0873 181.016 90.8027C181.377 92.4016 182.188 93.7296 183.448 94.7867C184.628 95.755 185.697 96.1809 186.657 96.0644C187.617 95.9478 188.056 95.5551 187.975 94.8862Z" fill="black"/>
<path d="M171.549 125.947C171.873 125.809 172.245 125.736 172.666 125.728C173.092 125.733 173.547 125.827 174.031 126.011C174.524 126.198 175.14 126.557 175.879 127.088C176.614 127.628 177.441 128.27 178.359 129.015L181.333 131.459C185.462 134.895 188.774 137.232 191.27 138.471C192.006 138.844 192.248 139.364 191.995 140.03C191.835 140.45 191.603 140.759 191.299 140.957C190.696 141.334 190.152 141.42 189.665 141.215C189.179 141.01 188.61 140.694 187.956 140.269C187.312 139.847 186.617 139.354 185.87 138.789C185.133 138.227 184.359 137.61 183.549 136.937L178.705 132.938C175.958 130.653 174.123 129.336 173.201 128.986C172.707 128.799 172.385 128.906 172.232 129.308C172.087 129.692 172.038 130.07 172.084 130.443C172.127 130.824 172.132 131.061 172.097 131.152C172.024 131.344 171.892 131.404 171.7 131.331C170.888 131.023 170.365 130.349 170.132 129.311C169.969 128.612 169.976 128.029 170.152 127.564C170.325 127.107 170.521 126.758 170.737 126.517C170.954 126.275 171.225 126.085 171.549 125.947Z" fill="black"/>
<path d="M155.375 153.122C155.941 153.142 156.509 153.298 157.079 153.588C157.656 153.886 158.22 154.339 158.772 154.946C159.323 155.554 159.8 156.24 160.204 157.005C160.6 157.776 160.914 158.58 161.147 159.417C161.373 160.261 161.511 161.117 161.563 161.985C161.607 162.859 161.552 163.703 161.399 164.517C161.057 166.281 160.312 167.672 159.165 168.688C157.659 170.022 156.053 170.264 154.348 169.414C153.119 168.793 152.071 167.654 151.202 165.996C150.402 164.475 149.948 162.828 149.841 161.058C149.726 159.294 150.027 157.703 150.742 156.287C151.103 155.575 151.554 154.98 152.095 154.501C152.629 154.028 153.169 153.673 153.716 153.437C154.256 153.207 154.808 153.102 155.375 153.122ZM157.991 160.295C157.732 159.56 157.415 158.849 157.041 158.162C156.66 157.482 156.24 156.889 155.779 156.384C155.325 155.886 154.895 155.556 154.49 155.393C154.084 155.244 153.713 155.318 153.377 155.616C153.04 155.914 152.812 156.319 152.691 156.83C152.569 157.356 152.523 157.944 152.553 158.596C152.583 159.248 152.682 159.943 152.852 160.68C153.022 161.416 153.244 162.146 153.519 162.868C154.116 164.44 154.826 165.676 155.65 166.577C156.363 167.381 156.98 167.747 157.504 167.675C157.713 167.646 157.938 167.525 158.179 167.311C158.413 167.104 158.587 166.754 158.699 166.263C158.818 165.779 158.87 165.218 158.853 164.581C158.836 163.944 158.753 163.254 158.605 162.511C158.456 161.769 158.251 161.03 157.991 160.295Z" fill="black"/>
<path d="M124.53 172.281C124.514 172.134 124.538 171.334 124.602 169.88C124.656 168.428 124.718 167.271 124.788 166.409C124.946 164.48 125.165 163.249 125.446 162.717C125.675 162.298 126.012 162.034 126.458 161.924C126.998 161.791 127.476 161.955 127.892 162.416C128.014 162.546 128.099 162.707 128.146 162.896C128.19 163.076 128.146 163.51 128.014 164.196C127.65 165.945 127.409 169.273 127.291 174.181C127.238 176.125 127.211 177.444 127.211 178.138L127.194 180.028C127.19 181.276 127.215 182.115 127.271 182.544C127.319 182.985 127.416 183.277 127.563 183.422C127.711 183.577 127.863 183.68 128.016 183.733C128.173 183.795 128.316 183.845 128.446 183.884C128.576 183.922 128.653 184.029 128.676 184.204C128.701 184.389 128.665 184.569 128.567 184.744C128.462 184.931 128.319 185.102 128.136 185.257C127.758 185.562 127.356 185.766 126.929 185.872C126.493 185.979 126.139 186.011 125.867 185.968C125.594 185.924 125.355 185.832 125.15 185.692C124.717 185.406 124.477 185.083 124.428 184.723C124.343 183.969 124.293 183.318 124.279 182.768C123.201 185.538 121.771 187.143 119.989 187.582C118.367 187.982 117.075 187.41 116.111 185.868C115.776 185.327 115.505 184.634 115.297 183.79C115.089 182.946 115.008 182.066 115.054 181.15C115.102 180.243 115.25 179.356 115.5 178.49C115.749 177.624 116.083 176.797 116.503 176.01C116.924 175.232 117.399 174.527 117.927 173.894C119.049 172.571 120.217 171.76 121.431 171.461C122.645 171.162 123.678 171.435 124.53 172.281ZM123.833 178.88C124.011 178.132 124.127 177.4 124.181 176.682C124.226 175.967 124.181 175.334 124.046 174.784C123.91 174.235 123.679 173.809 123.354 173.507C123.03 173.214 122.636 173.125 122.171 173.24C121.707 173.354 121.277 173.591 120.883 173.95C120.481 174.32 120.12 174.771 119.798 175.303C119.467 175.838 119.187 176.435 118.957 177.095C118.721 177.767 118.544 178.459 118.428 179.171C118.177 180.722 118.207 182.128 118.517 183.389C118.686 184.071 118.907 184.58 119.18 184.915C119.454 185.25 119.78 185.371 120.16 185.277C120.529 185.186 120.882 184.943 121.217 184.549C121.555 184.164 121.887 183.675 122.213 183.081C122.542 182.497 122.847 181.839 123.129 181.105C123.414 180.382 123.648 179.64 123.833 178.88Z" fill="black"/>
<path d="M89.4025 174.237C89.4565 174.099 89.8497 173.401 90.5822 172.144C91.3051 170.884 91.8975 169.888 92.3593 169.157C93.3961 167.522 94.1625 166.534 94.6588 166.193C95.0558 165.929 95.4772 165.852 95.9228 165.962C96.4633 166.095 96.8103 166.462 96.9639 167.063C97.0118 167.236 97.0124 167.417 96.9657 167.607C96.9213 167.787 96.6809 168.15 96.2446 168.696C95.1099 170.076 93.35 172.911 90.9649 177.202C90.0137 178.898 89.3768 180.054 89.0543 180.668L88.161 182.334C87.5773 183.437 87.2103 184.192 87.0601 184.597C86.898 185.01 86.8481 185.314 86.9103 185.511C86.9702 185.717 87.056 185.879 87.1677 185.997C87.2771 186.124 87.3805 186.235 87.4779 186.33C87.5754 186.424 87.5935 186.554 87.5325 186.72C87.4691 186.896 87.3536 187.038 87.1858 187.148C87.0061 187.264 86.7992 187.349 86.5649 187.402C86.0891 187.496 85.6379 187.49 85.2112 187.385C84.775 187.278 84.4465 187.141 84.2257 186.976C84.0049 186.811 83.8361 186.619 83.7193 186.399C83.4691 185.945 83.4062 185.547 83.5306 185.206C83.8054 184.499 84.0639 183.899 84.3062 183.405C82.065 185.357 80.0531 186.114 78.2705 185.674C76.6491 185.275 75.7702 184.168 75.634 182.354C75.5892 181.72 75.6708 180.98 75.8788 180.136C76.0868 179.293 76.424 178.475 76.8904 177.685C77.3544 176.904 77.8979 176.189 78.5211 175.537C79.1442 174.886 79.8244 174.31 80.5617 173.808C81.2967 173.315 82.045 172.911 82.8066 172.596C84.4151 171.946 85.8261 171.771 87.0398 172.07C88.2535 172.369 89.0411 173.091 89.4025 174.237ZM85.7188 179.756C86.2237 179.176 86.6671 178.581 87.0487 177.971C87.4209 177.359 87.6748 176.778 87.8104 176.228C87.9459 175.678 87.9396 175.194 87.7913 174.775C87.6407 174.366 87.3332 174.104 86.8685 173.989C86.4039 173.875 85.9137 173.885 85.3978 174.019C84.8701 174.16 84.3403 174.392 83.8084 174.713C83.2671 175.033 82.7414 175.431 82.2314 175.909C81.7096 176.394 81.2317 176.925 80.7978 177.502C79.8546 178.758 79.2275 180.016 78.9167 181.277C78.7484 181.96 78.7076 182.513 78.7943 182.937C78.881 183.361 79.114 183.619 79.4932 183.713C79.863 183.804 80.288 183.753 80.7682 183.559C81.246 183.375 81.7673 183.097 82.3322 182.723C82.8947 182.359 83.4711 181.917 84.0616 181.399C84.6496 180.89 85.202 180.342 85.7188 179.756Z" fill="black"/>
<path d="M55.8779 163.294C55.2853 163.904 54.6418 164.417 53.9474 164.832C53.2466 165.255 52.5031 165.601 51.7169 165.87C50.9242 166.146 50.1095 166.344 49.2728 166.464C48.4222 166.585 47.5938 166.614 46.7876 166.552C45.0494 166.408 43.6467 165.864 42.5795 164.918C41.3295 163.811 40.9528 162.557 41.4492 161.157C41.6139 160.677 41.9135 160.199 42.3483 159.723C42.7765 159.254 43.2597 158.893 43.7977 158.639C44.3293 158.392 44.9012 158.24 45.5134 158.182C46.1119 158.126 46.7433 158.157 47.4077 158.275C48.0648 158.388 48.7264 158.576 49.3927 158.84C50.7545 159.394 52.0339 160.189 53.231 161.223C53.3509 161.147 53.5052 161.009 53.6938 160.811C53.8825 160.613 54.0645 160.363 54.24 160.062C54.409 159.768 54.5188 159.468 54.5694 159.16C54.6948 158.488 54.509 157.932 54.0119 157.492C53.164 156.741 52.1178 156.258 50.8734 156.042C50.4394 155.958 50.0569 155.926 49.7261 155.946C49.3814 155.967 49.1433 155.919 49.0118 155.802C48.8802 155.686 48.8381 155.505 48.8856 155.26C48.9192 155.016 49.0235 154.795 49.1983 154.597C49.5415 154.21 49.9491 153.971 50.4209 153.88C52.1579 153.775 53.9364 154.529 55.7565 156.141C56.8311 157.093 57.4087 158.179 57.4894 159.399C57.5727 160.777 57.0356 162.076 55.8779 163.294ZM44.1126 163.674C44.8802 164.354 46.0847 164.481 47.7262 164.057C49.1286 163.681 50.563 163.034 52.0294 162.116C50.6986 161.158 49.2113 160.702 47.5675 160.746C46.0421 160.804 44.9589 161.194 44.3177 161.918C43.6766 162.642 43.6083 163.227 44.1126 163.674Z" fill="black"/>
<path d="M23.961 131.582C24.1619 132.111 25.2959 132.788 27.3632 133.613C28.9576 134.209 30.1462 134.631 30.9289 134.877L32.9578 135.517C34.1631 135.666 35.1561 135.765 35.937 135.813L37.8063 135.95C38.2716 135.993 38.6142 136.056 38.834 136.14C39.0411 136.218 39.1915 136.381 39.285 136.627C39.375 136.864 39.4177 137.115 39.4129 137.378C39.4138 137.628 39.377 137.861 39.3024 138.077C39.1418 138.535 38.888 138.83 38.541 138.962C38.404 139.013 38.0966 139.015 37.6186 138.967L36.3118 138.867C35.9208 138.827 35.428 138.795 34.8336 138.77L32.6663 138.714C29.564 138.658 27.6202 138.779 26.8349 139.077C26.4149 139.236 26.1564 139.491 26.0594 139.841L25.9715 140.188C25.9423 140.303 25.85 140.391 25.6948 140.449C25.5304 140.512 25.3527 140.511 25.1616 140.448C24.967 140.376 24.7768 140.26 24.5911 140.1C24.2252 139.769 23.9644 139.398 23.8085 138.987C23.6493 138.567 23.5702 138.221 23.5715 137.949C23.5728 137.677 23.6181 137.425 23.7076 137.193C23.8956 136.724 24.1631 136.424 24.51 136.293C24.857 136.161 25.2259 136.074 25.6166 136.03C25.9982 135.99 26.3976 135.969 26.8148 135.967C27.2229 135.969 27.6252 135.984 28.022 136.011C28.9457 136.078 29.5163 136.123 29.7335 136.145C29.9382 136.161 30.0107 136.16 29.9512 136.141C27.1535 135.29 25.4942 134.771 24.9734 134.582C23.8941 134.187 23.1294 133.85 22.6791 133.572C21.8668 133.055 21.3395 132.477 21.0971 131.838C20.8512 131.189 20.8564 130.597 21.1127 130.061C21.3691 129.525 21.8259 129.133 22.4834 128.884C23.0586 128.665 23.7897 128.555 24.6767 128.553C25.5636 128.551 26.1814 128.541 26.5299 128.524L23.1092 127.518L21.341 126.904C20.3269 126.516 19.6042 126.111 19.1728 125.69C18.7415 125.268 18.4652 124.898 18.344 124.578C18.2194 124.25 18.1575 123.908 18.1585 123.552C18.156 123.188 18.2227 122.854 18.3588 122.552C18.6296 121.917 19.1348 121.459 19.8744 121.178C20.5866 120.908 21.3794 120.795 22.2529 120.84C23.1263 120.885 23.8517 120.939 24.4291 121.002C24.9974 121.068 25.5669 121.124 26.1374 121.168C27.842 121.284 29.0459 121.209 29.7489 120.942C30.242 120.755 30.4124 120.461 30.26 120.059C30.1146 119.676 29.9008 119.36 29.6187 119.112C29.3331 118.855 29.173 118.68 29.1384 118.589C29.0657 118.397 29.1252 118.265 29.317 118.192C30.1296 117.884 30.9674 118.042 31.8304 118.665C32.416 119.08 32.7971 119.52 32.9738 119.986C33.1469 120.442 33.2324 120.833 33.2301 121.158C33.2279 121.482 33.1514 121.804 33.0006 122.122C32.6649 122.834 32.0999 123.341 31.3055 123.642C30.5111 123.943 29.7425 124.12 28.9997 124.172C28.257 124.224 27.5232 124.231 26.7984 124.192C26.0645 124.157 25.3853 124.101 24.761 124.025C24.124 123.943 23.6226 123.887 23.2568 123.859C22.5068 123.809 21.9811 123.841 21.6798 123.956C21.3237 124.091 21.2166 124.345 21.3586 124.72C21.5456 125.213 22.6987 125.789 24.818 126.447C26.4543 126.934 27.6219 127.259 28.3209 127.422L30.049 127.847C31.2542 127.996 32.2438 128.085 33.0177 128.116L34.8714 128.212C35.3299 128.236 35.6655 128.281 35.8783 128.347C36.082 128.416 36.2272 128.564 36.3138 128.793C36.4003 129.021 36.4487 129.258 36.4587 129.505C36.4653 129.743 36.4387 129.962 36.3789 130.162C36.2491 130.619 36.0382 130.902 35.746 131.013C35.4446 131.128 35.0019 131.186 34.4179 131.188C33.8212 131.184 33.1479 131.158 32.3979 131.108L27.6165 130.728C25.8502 130.615 24.7662 130.634 24.3644 130.786C23.9535 130.942 23.819 131.207 23.961 131.582ZM27.3092 128.761C27.3057 128.752 27.2994 128.749 27.2903 128.752L27.2577 128.749C27.2829 128.761 27.3001 128.764 27.3092 128.761Z" fill="black"/>
<path d="M25.7876 98.0382C24.9489 97.897 24.1613 97.6588 23.4249 97.3234C22.6788 96.9869 21.9717 96.5715 21.3038 96.0772C20.6262 95.5818 20.0004 95.0237 19.4265 94.4032C18.844 93.7717 18.3493 93.1066 17.9423 92.408C17.0733 90.8957 16.7247 89.4319 16.8966 88.0165C17.0979 86.3588 17.9155 85.3366 19.3495 84.95C19.8384 84.8126 20.4022 84.7876 21.0408 84.875C21.6698 84.9612 22.2416 85.1536 22.7562 85.4521C23.2612 85.7496 23.7113 86.1338 24.1066 86.6048C24.4934 87.0649 24.8266 87.6021 25.1062 88.2165C25.3869 88.8211 25.6078 89.4726 25.769 90.171C26.0865 91.6065 26.1597 93.1106 25.9884 94.6835C26.1194 94.7387 26.32 94.7877 26.5903 94.8303C26.8606 94.873 27.1695 94.881 27.517 94.8543C27.8549 94.8265 28.1647 94.746 28.4464 94.613C29.0705 94.3346 29.4225 93.8659 29.5026 93.2066C29.6391 92.0821 29.4425 90.9466 28.9128 89.8002C28.7357 89.395 28.545 89.062 28.3405 88.801C28.1276 88.5293 28.0317 88.3061 28.0529 88.1316C28.0741 87.9571 28.199 87.8198 28.4276 87.7197C28.6476 87.6087 28.8885 87.5691 29.1503 87.6008C29.6641 87.6632 30.0924 87.8628 30.4352 88.1995C31.5083 89.5693 31.8984 91.4612 31.6053 93.8751C31.4322 95.3002 30.8668 96.3923 29.9089 97.1516C28.8218 98.0033 27.448 98.2988 25.7876 98.0382ZM18.7918 88.5712C18.6682 89.5892 19.2473 90.6531 20.5291 91.7629C21.6347 92.7038 22.9821 93.5167 24.5713 94.2015C24.6031 92.5625 24.1339 91.0792 23.1638 89.7514C22.2499 88.5288 21.313 87.8592 20.3532 87.7427C19.3935 87.6261 18.873 87.9023 18.7918 88.5712Z" fill="black"/>
<path d="M35.6443 51.02C35.4724 51.2691 35.4694 51.7892 35.6354 52.5801C35.7934 53.3655 35.9528 54.0629 36.1136 54.6723L36.6359 56.5458L37.7908 60.262C38.3531 61.3384 38.8361 62.2117 39.2397 62.8819L40.1888 64.4981C40.4179 64.9054 40.5604 65.2233 40.6163 65.4518C40.6697 65.6666 40.6215 65.8826 40.4718 66.0996C40.3275 66.3085 40.1459 66.4857 39.9268 66.6312C39.7213 66.7741 39.5084 66.8763 39.288 66.9378C38.82 67.0657 38.4333 67.0242 38.1279 66.8134C38.0074 66.7302 37.8313 66.4781 37.5997 66.0572L36.9394 64.9251C36.7499 64.5807 36.4967 64.1568 36.1798 63.6532L34.9942 61.8381C33.2779 59.2532 32.0742 57.7223 31.383 57.2452C31.0133 56.99 30.6568 56.9219 30.3136 57.041L29.9784 57.1656C29.8667 57.2071 29.7425 57.1807 29.6059 57.0864C29.4612 56.9866 29.3606 56.84 29.3041 56.6468C29.2532 56.4455 29.2406 56.2232 29.2662 55.9798C29.3309 55.4905 29.4882 55.0651 29.7378 54.7034C29.993 54.3337 30.2301 54.0762 30.4492 53.9307C30.6682 53.7853 30.8932 53.6914 31.1241 53.6491C31.6107 53.5458 32.0067 53.5996 32.3121 53.8105C32.6175 54.0213 32.8992 54.275 33.1571 54.5717C33.4126 54.8549 33.6595 55.1677 33.8977 55.5101C34.1335 55.839 34.3597 56.1731 34.5764 56.5125C34.793 56.8519 34.9778 57.1515 35.1307 57.4113L35.4827 58.0103C35.5669 58.1633 35.596 58.2071 35.5699 58.1417C34.948 56.3953 34.5573 55.2594 34.3979 54.734L33.9677 53.1911C33.6715 52.073 33.529 51.2567 33.54 50.7422C33.5515 49.6941 33.6987 48.965 33.9816 48.5552C34.2646 48.1453 34.5553 47.8357 34.854 47.6266C35.1526 47.4174 35.4705 47.2749 35.8076 47.1991C36.5226 47.04 37.1976 47.1795 37.8325 47.6178C38.4674 48.056 39.0306 48.6584 39.5221 49.4248C40.0136 50.1912 40.4014 50.8327 40.6856 51.3493C40.9673 51.8522 41.2626 52.3527 41.5715 52.8507C42.4976 54.3799 43.2661 55.3553 43.8769 55.777C44.1502 55.9656 44.4366 55.8429 44.7361 55.4089C44.9691 55.0713 45.1076 54.716 45.1516 54.3429C45.2011 53.9617 45.2535 53.731 45.309 53.6506C45.4255 53.4818 45.5682 53.4557 45.7369 53.5722C46.4522 54.0659 46.7986 54.8449 46.776 55.9091C46.7671 56.6268 46.6212 57.1906 46.3382 57.6005C46.0553 58.0104 45.7753 58.3214 45.4983 58.5337C45.2269 58.7379 44.9226 58.8779 44.5854 58.9537C43.8322 59.1339 43.0738 58.9604 42.3103 58.4334C41.378 57.7899 40.4151 56.6922 39.4217 55.1402C38.7593 54.0541 38.3123 53.3006 38.0807 52.8797L37.5077 51.879C37.1653 51.2748 36.8454 50.8701 36.5481 50.6648C36.2507 50.4596 35.9495 50.5779 35.6443 51.02Z" fill="black"/>
<path d="M71.9087 32.6696C72.1594 32.538 72.3733 32.6408 72.5503 32.978C72.7001 33.2634 72.7588 33.5855 72.7266 33.9443C72.7563 34.5683 72.539 35.289 72.0746 36.1063C71.5468 37.034 70.8808 37.7088 70.0767 38.1309C68.6845 38.8616 67.4757 38.7019 66.4504 37.6519C65.2334 36.4047 64.2497 32.9229 63.4995 27.2067C62.4597 27.6421 61.8285 27.7528 61.6059 27.5388C61.5391 27.4746 61.483 27.3992 61.4376 27.3128C61.3877 27.2176 61.3699 27.0891 61.3842 26.9272C61.4071 26.7608 61.4539 26.5873 61.5246 26.4068C61.6957 25.9972 61.9368 25.7107 62.2481 25.5474L63.2728 25.0096C63.0585 22.3317 63.0708 20.7371 63.3097 20.2257C63.4273 19.9875 63.6029 19.8071 63.8363 19.6846C64.0698 19.5621 64.2803 19.4902 64.4677 19.4691C64.6551 19.4479 64.8388 19.4618 65.0189 19.5106C65.4317 19.6248 65.7221 19.8419 65.89 20.1618C65.9808 20.3348 66.0333 20.5609 66.0475 20.8402L66.1837 23.4322L66.495 23.2688C67.0311 22.9874 67.4612 22.7562 67.7853 22.5751C67.7853 22.5751 68.0294 22.4414 68.5178 22.1741C68.6775 22.0792 68.8785 21.9682 69.1206 21.8412C69.3713 21.7096 69.5444 21.7345 69.6397 21.9161C70.2387 23.0575 69.1893 24.3362 66.4915 25.7522L66.3877 25.8066L66.7038 28.5524C67.1254 31.7721 67.6198 33.9225 68.1871 35.0033C68.3459 35.306 68.5399 35.5075 68.769 35.6078C68.9936 35.6995 69.2961 35.6455 69.6766 35.4458C70.057 35.2461 70.3689 34.9997 70.6121 34.7066C70.8553 34.4136 71.0528 34.1279 71.2046 33.8497C71.3518 33.5629 71.4736 33.3115 71.5698 33.0956C71.6747 32.8751 71.7876 32.7331 71.9087 32.6696Z" fill="black"/>
<path d="M102.688 107.688C103.125 107.688 103.344 107.917 103.344 108.375C103.344 110.167 102.417 111.708 100.562 113C99.3333 113.875 98.1667 114.312 97.0625 114.312C95.9792 114.312 95.1146 114.188 94.4688 113.938C93.8229 113.688 93.2396 113.292 92.7188 112.75C91.5521 111.5 90.9688 109.781 90.9688 107.594C90.9688 107.156 91.0521 106.458 91.2188 105.5C89.5312 108.104 88.0833 109.938 86.875 111C84.4375 113.208 82.0521 114.312 79.7188 114.312C76.0312 114.312 73.6146 112.646 72.4688 109.312C72.0521 108.083 71.8438 106.542 71.8438 104.688C71.8438 102.833 72.125 100.958 72.6875 99.0625C73.25 97.1667 74.0104 95.3646 74.9688 93.6562C75.9479 91.9479 77.0729 90.3646 78.3438 88.9062C79.6354 87.4271 80.9896 86.1458 82.4062 85.0625C85.4479 82.7917 88.1979 81.6562 90.6562 81.6562C93.1146 81.6562 95.0833 82.6562 96.5625 84.6562C100.188 72.2396 102.917 64.9167 104.75 62.6875C105.521 61.7708 106.333 61.3125 107.188 61.3125C108.604 61.3125 109.677 61.7188 110.406 62.5312C110.635 62.8021 110.75 63.0729 110.75 63.3438C110.75 63.6146 110.583 64.1146 110.25 64.8438C109.917 65.5729 109.427 66.75 108.781 68.375C106.927 73.2708 105.625 76.8542 104.875 79.125C102.958 84.9375 101.667 88.9375 101 91.125L99.2812 96.9062C97.8021 102.052 97.0625 105.323 97.0625 106.719C97.0625 108.115 97.5729 108.812 98.5938 108.812C99.5312 108.812 100.281 108.688 100.844 108.438L102.031 107.875C102.26 107.75 102.479 107.688 102.688 107.688ZM81.2188 109.625C83.3646 109.625 85.8229 107.531 88.5938 103.344C91.4896 99.0104 93.5104 94.2917 94.6562 89.1875C94.5729 87.7708 93.9792 86.7292 92.875 86.0625C92.5 85.8333 91.9271 85.7188 91.1562 85.7188C90.4062 85.7188 89.5208 86 88.5 86.5625C87.5 87.1042 86.5208 87.8438 85.5625 88.7812C84.625 89.7188 83.7396 90.8229 82.9062 92.0938C82.0938 93.3438 81.3854 94.6771 80.7812 96.0938C79.4688 99.1771 78.8125 102.208 78.8125 105.188C78.8125 108.146 79.6146 109.625 81.2188 109.625ZM127.844 114.281C123.115 114.281 119.344 109.792 116.531 100.812C115.427 102.854 114.51 104.708 113.781 106.375L111.906 110.625C111.365 111.792 110.854 112.698 110.375 113.344C109.917 113.99 109.396 114.312 108.812 114.312C108.229 114.312 107.698 114.208 107.219 114C106.74 113.812 106.323 113.562 105.969 113.25C105.24 112.583 104.875 111.854 104.875 111.062C104.875 110.75 105.094 110.135 105.531 109.219L106.781 106.688C110.677 98.6667 114.208 88.5 117.375 76.1875C118.542 71.6458 119.385 67.5625 119.906 63.9375C120.135 62.1875 120.99 61.3125 122.469 61.3125C123.344 61.3125 124.073 61.5417 124.656 62C125.781 62.8958 126.323 63.8646 126.281 64.9062C126.24 65.9271 126.094 67.0833 125.844 68.375C125.615 69.6667 125.302 71.0833 124.906 72.625C124.51 74.1458 124.062 75.7396 123.562 77.4062C122.208 81.7604 121.198 84.8646 120.531 86.7188L117.594 94.8125C117.219 95.7708 116.927 96.4688 116.719 96.9062C121.552 94.9896 125.177 92.8229 127.594 90.4062C129.052 88.9479 129.781 87.5833 129.781 86.3125C129.781 85.6667 129.562 85.1979 129.125 84.9062C128.708 84.6146 128.417 84.3958 128.25 84.25C128.104 84.0833 128.094 83.8021 128.219 83.4062C128.365 82.9896 128.76 82.5938 129.406 82.2188C130.052 81.8438 130.833 81.6562 131.75 81.6562C132.667 81.6562 133.427 81.7396 134.031 81.9062C134.656 82.0729 135.198 82.3333 135.656 82.6875C136.677 83.4167 137.188 84.4479 137.188 85.7812C137.188 87.1146 136.906 88.3438 136.344 89.4688C135.781 90.5729 134.906 91.6458 133.719 92.6875C131.365 94.6875 127.594 96.625 122.406 98.5C123.052 101.271 124.24 103.708 125.969 105.812C127.615 107.812 129.125 108.812 130.5 108.812C131.229 108.812 131.854 108.688 132.375 108.438L133.5 107.875C133.729 107.75 133.948 107.688 134.156 107.688C134.677 107.688 134.938 108 134.938 108.625C134.938 109.167 134.844 109.646 134.656 110.062C134.469 110.458 134.198 110.885 133.844 111.344C133.51 111.802 133.073 112.25 132.531 112.688C131.177 113.75 129.615 114.281 127.844 114.281Z" fill="black"/>
</svg>
